<svg xmlns="http://www.w3.org/2000/svg" width="410" height="404" viewBox="0 0 410 404" fill="none">
  <g clip-path="url(#clip0_1_20)">
    <path
      d="M399.641 59.524C402.788 43.53 387.02 30.619 371.777 36.646L24.628 174.267C8.611 180.538 6.982 202.708 22.052 211.407L120.132 267.016C122.017 268.084 123.579 269.646 124.647 271.531L180.256 369.611C188.955 384.681 211.125 383.052 217.396 367.035L355.017 19.886C361.044 4.643 348.133 -11.125 332.139 -7.978L87.624 45.63"
      fill="#FFEA83" />
    <path
      d="M399.641 59.524C402.788 43.53 387.02 30.619 371.777 36.646L24.628 174.267C8.611 180.538 6.982 202.708 22.052 211.407L120.132 267.016C122.017 268.084 123.579 269.646 124.647 271.531L180.256 369.611C188.955 384.681 211.125 383.052 217.396 367.035L355.017 19.886C361.044 4.643 348.133 -11.125 332.139 -7.978L87.624 45.63"
      fill="url(#paint0_linear_1_20)" />
    <path
      d="M242.798 53.527C245.945 37.533 230.177 24.622 214.934 30.649L24.628 105.943C8.611 112.214 6.982 134.384 22.052 143.083L120.132 198.692C122.017 199.76 123.579 201.322 124.647 203.207L180.256 301.287C188.955 316.357 211.125 314.728 217.396 298.711L242.798 53.527Z"
      fill="#FFEA83" />
    <path
      d="M242.798 53.527C245.945 37.533 230.177 24.622 214.934 30.649L24.628 105.943C8.611 112.214 6.982 134.384 22.052 143.083L120.132 198.692C122.017 199.76 123.579 201.322 124.647 203.207L180.256 301.287C188.955 316.357 211.125 314.728 217.396 298.711L242.798 53.527Z"
      fill="url(#paint1_linear_1_20)" />
    <path
      d="M179.754 27.55C182.901 11.556 167.133 -1.355 151.89 4.672L24.628 55.619C8.611 61.89 6.982 84.06 22.052 92.759L120.132 148.368C122.017 149.436 123.579 150.998 124.647 152.883L180.256 250.963C188.955 266.033 211.125 264.404 217.396 248.387L179.754 27.55Z"
      fill="#FFEA83" />
  </g>
  <defs>
    <linearGradient id="paint0_linear_1_20" x1="13" y1="41" x2="421" y2="240" gradientUnits="userSpaceOnUse">
      <stop stop-color="#FFEA83" />
      <stop offset="0.08" stop-color="#FFDD35" />
      <stop offset="0.3" stop-color="#FFA800" />
      <stop offset="0.4" stop-color="#FF7C00" />
      <stop offset="0.78" stop-color="#FF006E" />
      <stop offset="0.96" stop-color="#FF4B30" />
    </linearGradient>
    <linearGradient id="paint1_linear_1_20" x1="13" y1="41" x2="421" y2="240" gradientUnits="userSpaceOnUse">
      <stop stop-color="#FFEA83" />
      <stop offset="0.08" stop-color="#FFDD35" />
      <stop offset="0.3" stop-color="#FFA800" />
      <stop offset="0.4" stop-color="#FF7C00" />
      <stop offset="0.78" stop-color="#FF006E" />
      <stop offset="0.96" stop-color="#FF4B30" />
    </linearGradient>
    <clipPath id="clip0_1_20">
      <rect width="410" height="404" fill="white" />
    </clipPath>
  </defs>
</svg>

